<?xml version="1.0" encoding="UTF-8" standalone="no"?>
<!-- Created with Inkscape (http://www.inkscape.org/) -->
<svg id="svg2" xmlns:rdf="http://www.w3.org/1999/02/22-rdf-syntax-ns#" xmlns="http://www.w3.org/2000/svg" height="40" viewBox="0 0 122 39.999999" width="122" version="1.1" xmlns:cc="http://creativecommons.org/ns#" xmlns:dc="http://purl.org/dc/elements/1.1/">
 <metadata id="metadata7">
  <rdf:RDF>
   <cc:Work rdf:about="">
    <dc:format>image/svg+xml</dc:format>
    <dc:type rdf:resource="http://purl.org/dc/dcmitype/StillImage"/>
    <dc:title/>
   </cc:Work>
  </rdf:RDF>
 </metadata>
 <g id="layer1" transform="translate(0,-1012.4)">
  <rect id="rect4155" height="39.012" width="104.01" stroke="#bcc9d8" y="1012.9" x="15.994" stroke-width=".98764" fill="#fff"/>
  <path id="rect4136" fill="#143a7a" d="m0 1012.4h30.403l12.964 40h-43.367z"/>
  <g id="text4139">
   <path id="path4254" fill="#fff" d="m9.1217 1044v-22.979h7.3284q2.1167 0 3.6401 0.4169 1.5394 0.417 2.5176 1.1867 0.99422 0.7697 1.4593 1.8922 0.48107 1.1065 0.48107 2.5016 0 0.8499-0.27261 1.6356-0.25657 0.7858-0.80179 1.4593-0.52918 0.6735-1.347 1.2027-0.80179 0.5292-1.8922 0.8659 2.5176 0.4971 3.8005 1.8121 1.2829 1.3149 1.2829 3.4637 0 1.4593-0.54522 2.6619-0.52918 1.2027-1.5715 2.0687-1.0263 0.8659-2.5337 1.347-1.4913 0.465-3.4156 0.465h-8.1302zm3.1109-10.471v8.0019h4.9711q1.331 0 2.2771-0.3047 0.96215-0.3047 1.5715-0.8499 0.6254-0.5612 0.91404-1.3149 0.28864-0.7697 0.28864-1.6838 0-1.78-1.2668-2.8062-1.2508-1.0424-3.8005-1.0424h-4.9551zm0-2.2129h4.1052q1.3149 0 2.2771-0.2887 0.96215-0.2886 1.5875-0.8018 0.64143-0.5131 0.94611-1.2347 0.30468-0.7377 0.30468-1.6036 0-2.0205-1.2187-2.9666t-3.7845-0.9461h-4.2174v7.8415z"/>
  </g>
  <g id="g4210" fill="#143a7a">
   <g id="text4143">
    <path id="path4243" d="m53.356 1030.8q0.19368 0 0.33454 0.1497l0.93318 1.0124q-0.77472 0.9596-1.9104 1.4702-1.1269 0.5106-2.7115 0.5106-1.4174 0-2.5531-0.4842-1.1269-0.4842-1.928-1.3469-0.80113-0.8628-1.2325-2.0601-0.42257-1.1973-0.42257-2.6147 0-1.435 0.4754-2.6234 0.4754-1.1973 1.3382-2.0601 0.86276-0.8627 2.06-1.3381 1.2061-0.4842 2.6587-0.4842 1.4174 0 2.4738 0.4577 1.0652 0.449 1.8224 1.1973l-0.79233 1.1005q-0.07043 0.1056-0.18488 0.1849-0.10564 0.079-0.29932 0.079-0.20248 0-0.41377-0.1585-0.21129-0.1584-0.53702-0.3433t-0.82754-0.3433q-0.493-0.1585-1.2589-0.1585-0.89797 0-1.6551 0.3169-0.74831 0.3081-1.2941 0.8892-0.53702 0.581-0.84515 1.4174-0.29932 0.8275-0.29932 1.8663 0 1.0741 0.29932 1.9104 0.30813 0.8364 0.82754 1.4086t1.2237 0.8804q0.70429 0.2993 1.5142 0.2993 0.4842 0 0.87156-0.053 0.39616-0.053 0.7219-0.1673 0.33454-0.1144 0.62506-0.2905 0.29932-0.1849 0.58984-0.449 0.08804-0.079 0.18488-0.1233 0.09684-0.053 0.21129-0.053z"/>
    <path id="path4245" d="m58.593 1020.8v13.082h-2.1745v-13.082h2.1745z"/>
    <path id="path4247" d="m64.791 1024.7q0.85395 0 1.567 0.2729 0.7219 0.2729 1.2413 0.8011 0.51941 0.5194 0.80993 1.2854 0.29052 0.7571 0.29052 1.7343 0 0.2465-0.02641 0.4137-0.01761 0.1585-0.07923 0.2553-0.05282 0.088-0.14966 0.1321-0.09684 0.035-0.2465 0.035h-5.5815q0.09684 1.391 0.74831 2.0425 0.65147 0.6514 1.7255 0.6514 0.52822 0 0.90677-0.1232 0.38736-0.1233 0.66908-0.2729 0.29052-0.1497 0.50181-0.273 0.22009-0.1232 0.42257-0.1232 0.13205 0 0.22889 0.053t0.16727 0.1497l0.63386 0.7923q-0.36095 0.4226-0.80993 0.7131-0.44898 0.2817-0.94199 0.4578-0.4842 0.1673-0.99481 0.2377-0.50181 0.07-0.9772 0.07-0.94199 0-1.7519-0.3081-0.80993-0.3169-1.4086-0.9244-0.59865-0.6162-0.94199-1.5142-0.34334-0.9068-0.34334-2.0953 0-0.9244 0.29932-1.7343 0.29932-0.8187 0.85395-1.4174 0.56343-0.6074 1.3646-0.9596 0.80993-0.3521 1.8224-0.3521zm0.04402 1.5582q-0.95079 0-1.4878 0.537-0.53702 0.5371-0.68668 1.5231h4.0849q0-0.4226-0.11445-0.7924-0.11445-0.3785-0.35214-0.6602-0.2377-0.2817-0.59865-0.4402-0.36095-0.1673-0.84515-0.1673z"/>
    <path id="path4249" d="m77.559 1033.8h-0.9772q-0.30813 0-0.4842-0.088-0.17607-0.097-0.26411-0.3785l-0.19368-0.6427q-0.34334 0.3081-0.67788 0.5458-0.32573 0.2289-0.67788 0.3874-0.35214 0.1585-0.74831 0.2377-0.39616 0.079-0.88036 0.079-0.57224 0-1.0564-0.1496-0.4842-0.1585-0.83634-0.4666-0.34334-0.3082-0.53702-0.766-0.19368-0.4577-0.19368-1.0652 0-0.5106 0.26411-1.0036 0.27291-0.5018 0.89797-0.898 0.62506-0.4049 1.6639-0.669 1.0388-0.2642 2.5795-0.2994v-0.5282q0-0.9068-0.38736-1.3381-0.37856-0.4402-1.1093-0.4402-0.52822 0-0.88036 0.1232-0.35214 0.1233-0.61625 0.2817-0.2553 0.1497-0.4754 0.273-0.22009 0.1232-0.4842 0.1232-0.22009 0-0.37856-0.1144-0.15846-0.1145-0.2553-0.2818l-0.39616-0.6954q1.5582-1.4262 3.7591-1.4262 0.79233 0 1.4086 0.2641 0.62506 0.2553 1.0564 0.7219 0.43138 0.4578 0.65147 1.1004 0.22889 0.6427 0.22889 1.4086v5.7048zm-4.2257-1.3558q0.33454 0 0.61625-0.062 0.28172-0.062 0.52822-0.1849 0.2553-0.1233 0.4842-0.2993 0.2377-0.1849 0.4754-0.4314v-1.523q-0.95079 0.044-1.5935 0.1672-0.63386 0.1145-1.0212 0.2994-0.38736 0.1848-0.55463 0.4313-0.15846 0.2465-0.15846 0.5371 0 0.5722 0.33454 0.8187 0.34334 0.2465 0.88917 0.2465z"/>
    <path id="path4251" d="m79.697 1033.8v-9.0326h1.2765q0.33454 0 0.46659 0.1233 0.13205 0.1232 0.17607 0.4226l0.13205 1.0916q0.4842-0.8363 1.1357-1.3205 0.65147-0.4842 1.4614-0.4842 0.66908 0 1.1093 0.3081l-0.28172 1.6287q-0.02641 0.1584-0.11445 0.2289-0.08804 0.062-0.2377 0.062-0.13205 0-0.36095-0.062-0.22889-0.062-0.60745-0.062-0.67788 0-1.1621 0.3786-0.4842 0.3697-0.81874 1.0916v5.6256h-2.1745z"/>
   </g>
   <g id="text4149">
    <path id="path4226" d="m55.742 1040.5q0 0.8713-0.28316 1.6064t-0.80047 1.2688q-0.51186 0.5282-1.2361 0.8277-0.71879 0.2995-1.6009 0.2995-0.8767 0-1.6009-0.2995-0.71879-0.2995-1.2361-0.8277-0.51731-0.5337-0.80047-1.2688t-0.28316-1.6064q0-0.8712 0.28316-1.6064 0.28316-0.7351 0.80047-1.2687 0.51731-0.5337 1.2361-0.8332 0.72423-0.2995 1.6009-0.2995 0.88215 0 1.6009 0.2995 0.72423 0.2995 1.2361 0.8332 0.51731 0.5336 0.80047 1.2687 0.28316 0.7352 0.28316 1.6064zm-1.3014 0q0-0.6752-0.18514-1.2143-0.1797-0.5391-0.52276-0.9148-0.33761-0.3757-0.82225-0.5772t-1.0891-0.2015q-0.59899 0-1.0836 0.2015-0.48464 0.2015-0.8277 0.5772t-0.5282 0.9148-0.18514 1.2143q0 0.6807 0.18514 1.2198t0.5282 0.9148q0.34306 0.3703 0.8277 0.5718 0.48464 0.196 1.0836 0.196 0.60444 0 1.0891-0.196 0.48464-0.2015 0.82225-0.5718 0.34306-0.3757 0.52276-0.9148 0.18514-0.5391 0.18514-1.2198z"/>
    <path id="path4228" d="m56.814 1046.2v-7.4003h0.7079q0.2396 0 0.30494 0.2233l0.09257 0.5826q0.17425-0.2015 0.37028-0.3703t0.41929-0.2886q0.2287-0.1198 0.48464-0.1851 0.26138-0.065 0.55543-0.065 0.4683 0 0.84948 0.1906 0.38118 0.1852 0.65344 0.5446 0.27227 0.3594 0.41929 0.893 0.15247 0.5282 0.15247 1.2143 0 0.6154-0.16881 1.149-0.16336 0.5282-0.47375 0.9203-0.31039 0.3866-0.75146 0.6098-0.44107 0.2179-0.9965 0.2179-0.49008 0-0.83314-0.1525-0.34306-0.1579-0.61533-0.4356v2.3524h-1.1708zm2.543-6.5617q-0.45196 0-0.77324 0.196-0.32128 0.1906-0.59899 0.55v2.5757q0.24504 0.3158 0.53364 0.4465 0.29405 0.1252 0.648 0.1252 0.68612 0 1.0673-0.5009 0.38662-0.501 0.38662-1.4921 0-0.5118-0.08713-0.8712-0.08713-0.3649-0.25049-0.5936t-0.39751-0.3321q-0.23415-0.1035-0.5282-0.1035z"/>
    <path id="path4230" d="m65.307 1038.7q0.51186 0 0.94749 0.1688 0.43563 0.1633 0.75146 0.4846t0.49008 0.7896q0.1797 0.4629 0.1797 1.0564 0 0.2723-0.0599 0.3648-0.0599 0.093-0.21781 0.093h-3.5667q0.02178 0.4738 0.14702 0.8223 0.12524 0.343 0.33217 0.5717 0.21237 0.2287 0.50097 0.3431 0.29405 0.1089 0.65344 0.1089 0.34306 0 0.59354-0.076 0.25049-0.082 0.43563-0.1743 0.18514-0.098 0.31583-0.1742 0.13069-0.082 0.2396-0.082 0.14158 0 0.21781 0.1089l0.33217 0.4302q-0.20692 0.245-0.4683 0.4138t-0.55543 0.2777q-0.29405 0.1035-0.60444 0.147-0.31038 0.049-0.60443 0.049-0.57721 0-1.0727-0.1906-0.49008-0.1961-0.85492-0.5718-0.35939-0.3757-0.56632-0.9312-0.20148-0.5554-0.20148-1.2796 0-0.5772 0.1797-1.0782 0.18514-0.501 0.52275-0.8712 0.34306-0.3703 0.8277-0.5827 0.49008-0.2178 1.1054-0.2178zm0.02178 0.8495q-0.63711 0-1.0019 0.3648-0.36484 0.3648-0.46286 1.0237h2.7608q0-0.294-0.08713-0.5445-0.08168-0.2559-0.24504-0.4411-0.16336-0.1906-0.4084-0.294-0.2396-0.1089-0.55543-0.1089z"/>
    <path id="path4232" d="m68.768 1044.4v-5.5543h0.7079q0.2396 0 0.30494 0.2233l0.08168 0.5173q0.17425-0.1852 0.36484-0.3376 0.19603-0.1525 0.41385-0.2614 0.21781-0.1089 0.46286-0.1688 0.25049-0.06 0.53909-0.06 0.45741 0 0.80047 0.1525 0.3485 0.1524 0.58265 0.4301 0.2396 0.2777 0.35939 0.6698 0.1198 0.3866 0.1198 0.8549v3.5341h-1.1653v-3.5341q0-0.5608-0.26138-0.8712-0.25593-0.3104-0.78413-0.3104-0.39207 0-0.72968 0.1797-0.33217 0.1797-0.62622 0.4901v4.0459h-1.1708z"/>
    <path id="path4234" d="m84.696 1040.5q0 0.8713-0.28316 1.5955-0.28316 0.7188-0.80047 1.2361-0.51186 0.5173-1.2361 0.8059-0.71879 0.2832-1.6009 0.2832h-2.9623v-7.8413h2.9623q0.88215 0 1.6009 0.2886 0.72423 0.2831 1.2361 0.8004 0.51731 0.5173 0.80047 1.2416 0.28316 0.7188 0.28316 1.59zm-1.3014 0q0-0.6752-0.18514-1.2143-0.1797-0.5391-0.52275-0.9094-0.33761-0.3703-0.82225-0.5663-0.48464-0.2015-1.0891-0.2015h-1.6826v5.783h1.6826q0.60443 0 1.0891-0.196 0.48464-0.1961 0.82225-0.5663 0.34306-0.3758 0.52275-0.9094 0.18514-0.5391 0.18514-1.2198z"/>
    <path id="path4236" d="m89.325 1044.4q-0.16881 0-0.25593-0.049-0.08713-0.054-0.14702-0.2124l-0.11435-0.452q-0.21237 0.1961-0.41929 0.3431t-0.43018 0.2505q-0.21782 0.1034-0.47375 0.1524-0.25049 0.054-0.55543 0.054-0.33761 0-0.63166-0.093-0.2886-0.092-0.50097-0.2777-0.21237-0.1906-0.33761-0.4683-0.1198-0.2777-0.1198-0.6534 0-0.3213 0.16881-0.6262 0.17425-0.305 0.56632-0.5446 0.39751-0.245 1.0401-0.4029 0.648-0.158 1.5955-0.1797v-0.3703q0-0.599-0.25593-0.8931-0.25593-0.294-0.75146-0.294-0.33761 0-0.56632 0.087-0.2287 0.082-0.39751 0.1797-0.16881 0.098-0.2995 0.1852-0.13069 0.082-0.27771 0.082-0.1198 0-0.20692-0.06-0.08168-0.065-0.13613-0.1579l-0.21237-0.3812q0.94205-0.8767 2.2435-0.8767 0.47919 0 0.84948 0.158 0.37573 0.1524 0.62622 0.4356 0.25593 0.2831 0.38662 0.6752 0.13613 0.3866 0.13613 0.8604v3.5286h-0.52275zm-2.042-0.7297q0.45741 0 0.78413-0.1688 0.33217-0.1743 0.64255-0.4955v-1.0347q-0.62622 0.027-1.0564 0.1035-0.43018 0.076-0.69701 0.2015-0.26682 0.1252-0.38662 0.294-0.11435 0.1634-0.11435 0.3649 0 0.196 0.0599 0.3376 0.06535 0.1361 0.17425 0.2287 0.11435 0.087 0.26138 0.1307 0.15247 0.038 0.33217 0.038z"/>
    <path id="path4238" d="m92.926 1044.5q-0.69156 0-1.0673-0.3866-0.37028-0.3921-0.37028-1.1v-3.2345h-0.60988q-0.09802 0-0.16881-0.06-0.07079-0.065-0.07079-0.1906v-0.4738l0.89848-0.1306 0.25593-1.6064q0.02723-0.093 0.09257-0.1471 0.06534-0.06 0.17425-0.06h0.59899v1.8242h1.541v0.8441h-1.541v3.1528q0 0.2995 0.14702 0.4574 0.14702 0.158 0.39206 0.158 0.13613 0 0.23415-0.033 0.09802-0.038 0.16881-0.076 0.07079-0.044 0.1198-0.076 0.05445-0.038 0.10346-0.038 0.09802 0 0.15792 0.1089l0.3485 0.5718q-0.27227 0.2396-0.64255 0.3703-0.37028 0.1252-0.76235 0.1252z"/>
    <path id="path4240" d="m98.706 1044.4q-0.16881 0-0.25593-0.049-0.08713-0.054-0.14702-0.2124l-0.11435-0.452q-0.21237 0.1961-0.41929 0.3431t-0.43018 0.2505q-0.21781 0.1034-0.47375 0.1524-0.25049 0.054-0.55543 0.054-0.33761 0-0.63166-0.093-0.2886-0.092-0.50097-0.2777-0.21237-0.1906-0.33761-0.4683-0.1198-0.2777-0.1198-0.6534 0-0.3213 0.16881-0.6262 0.17425-0.305 0.56632-0.5446 0.39751-0.245 1.0401-0.4029 0.648-0.158 1.5955-0.1797v-0.3703q0-0.599-0.25593-0.8931-0.25593-0.294-0.75146-0.294-0.33761 0-0.56632 0.087-0.2287 0.082-0.39751 0.1797-0.16881 0.098-0.2995 0.1852-0.13069 0.082-0.27771 0.082-0.1198 0-0.20692-0.06-0.08168-0.065-0.13613-0.1579l-0.21237-0.3812q0.94205-0.8767 2.2435-0.8767 0.47919 0 0.84948 0.158 0.37573 0.1524 0.62622 0.4356 0.25593 0.2831 0.38662 0.6752 0.13613 0.3866 0.13613 0.8604v3.5286h-0.52276zm-2.042-0.7297q0.45741 0 0.78413-0.1688 0.33217-0.1743 0.64255-0.4955v-1.0347q-0.62622 0.027-1.0564 0.1035-0.43018 0.076-0.69701 0.2015-0.26682 0.1252-0.38662 0.294-0.11435 0.1634-0.11435 0.3649 0 0.196 0.0599 0.3376 0.06534 0.1361 0.17425 0.2287 0.11435 0.087 0.26138 0.1307 0.15247 0.038 0.33217 0.038z"/>
   </g>
   <rect id="rect4153" y="1012.4" width="5" x="117" height="40"/>
  </g>
 </g>
</svg>
