<?xml version="1.0" encoding="UTF-8" standalone="no"?>
<!-- Created with Inkscape (http://www.inkscape.org/) -->

<svg
   xmlns:dc="http://purl.org/dc/elements/1.1/"
   xmlns:cc="http://creativecommons.org/ns#"
   xmlns:rdf="http://www.w3.org/1999/02/22-rdf-syntax-ns#"
   xmlns:svg="http://www.w3.org/2000/svg"
   xmlns="http://www.w3.org/2000/svg"
   xmlns:sodipodi="http://sodipodi.sourceforge.net/DTD/sodipodi-0.dtd"
   xmlns:inkscape="http://www.inkscape.org/namespaces/inkscape"
   id="svg2"
   height="36"
   width="181"
   version="1.1"
   viewBox="0 0 181 36"
   inkscape:version="0.91 r13725"
   sodipodi:docname="open-data-logo.svg">
  <defs
     id="defs4212" />
  <sodipodi:namedview
     pagecolor="#ffffff"
     bordercolor="#666666"
     borderopacity="1"
     objecttolerance="10"
     gridtolerance="10"
     guidetolerance="10"
     inkscape:pageopacity="0"
     inkscape:pageshadow="2"
     inkscape:window-width="1685"
     inkscape:window-height="869"
     id="namedview4210"
     showgrid="false"
     inkscape:zoom="7.0441989"
     inkscape:cx="169.99804"
     inkscape:cy="18"
     inkscape:window-x="0"
     inkscape:window-y="0"
     inkscape:window-maximized="0"
     inkscape:current-layer="text4247" />
  <metadata
     id="metadata7">
    <rdf:RDF>
      <cc:Work
         rdf:about="">
        <dc:format>image/svg+xml</dc:format>
        <dc:type
           rdf:resource="http://purl.org/dc/dcmitype/StillImage" />
        <dc:title></dc:title>
      </cc:Work>
    </rdf:RDF>
  </metadata>
  <g
     id="layer1"
     transform="translate(0 -1016.4)">
    <path
       id="path4177"
       fill="#315da6"
       d="m17.938 1016.5a17.938 17.938 0 0 0 -17.938 17.9 17.938 17.938 0 0 0 17.938 17.938 17.938 17.938 0 0 0 9.3283 -2.6361l-5.929-5.929c-2.2127 0.9406-4.3782 0.9982-5.6251 0.5409-4.5625-1.6737-7.0182-5.2984-6.8802-9.5374l6.9668 3.8797c1.5791 0.8794 3.5536 0.3249 4.4272-1.2437l1.9284-3.4629c0.87356-1.5687 0.30602-3.5397-1.2731-4.419l-7.1368-3.9762c1.1629-0.6311 2.4678-0.8898 3.9287-0.8711 2.0758 0.027 4.4583 0.5915 7.1711 1.3598 3.7035 1.0488 5.095 5.6767 2.5445 11.554-0.04675 0.1078-0.10168 0.2025-0.15035 0.3074l5.929 5.9306a17.938 17.938 0 0 0 2.7079 -9.4345 17.938 17.938 0 0 0 -17.938 -17.938z" />
    <g
       id="text4247">
      <g
         fill="#315da6"
         id="g4193">
        <path
           id="path4216"
           d="m 131.1,1042.4 q -0.31,0 -0.47,-0.09 -0.16,-0.1 -0.27,-0.39 l -0.21,-0.83 q -0.39,0.36 -0.77,0.63 -0.38,0.27 -0.79,0.46 -0.4,0.19 -0.87,0.28 -0.46,0.1 -1.02,0.1 -0.62,0 -1.16,-0.17 -0.53,-0.17 -0.92,-0.51 -0.39,-0.35 -0.62,-0.86 -0.22,-0.51 -0.22,-1.2 0,-0.59 0.31,-1.15 0.32,-0.56 1.04,-1 0.73,-0.45 1.91,-0.74 1.19,-0.29 2.93,-0.33 l 0,-0.68 q 0,-1.1 -0.47,-1.64 -0.47,-0.54 -1.38,-0.54 -0.62,0 -1.04,0.16 -0.42,0.15 -0.73,0.33 -0.31,0.18 -0.55,0.34 -0.24,0.15 -0.51,0.15 -0.22,0 -0.38,-0.11 -0.15,-0.12 -0.25,-0.29 l -0.39,-0.7 q 1.73,-1.61 4.12,-1.61 0.88,0 1.56,0.29 0.69,0.28 1.15,0.8 0.47,0.52 0.71,1.24 0.25,0.71 0.25,1.58 l 0,6.48 -0.96,0 z m -3.75,-1.34 q 0.84,0 1.44,-0.31 0.61,-0.32 1.18,-0.91 l 0,-1.9 q -1.15,0.05 -1.94,0.19 -0.79,0.14 -1.28,0.37 -0.49,0.23 -0.71,0.54 -0.21,0.3 -0.21,0.67 0,0.36 0.11,0.62 0.12,0.25 0.32,0.42 0.21,0.16 0.48,0.24 0.28,0.07 0.61,0.07 z m -6.86,1.54 q -1.27,0 -1.96,-0.71 -0.68,-0.72 -0.68,-2.02 l 0,-5.94 -1.12,0 q -0.18,0 -0.31,-0.11 -0.13,-0.12 -0.13,-0.35 l 0,-0.87 1.65,-0.24 0.47,-2.95 q 0.05,-0.17 0.17,-0.27 0.12,-0.11 0.32,-0.11 l 1.1,0 0,3.35 2.83,0 0,1.55 -2.83,0 0,5.79 q 0,0.55 0.27,0.84 0.27,0.29 0.72,0.29 0.25,0 0.43,-0.06 0.18,-0.07 0.31,-0.14 0.13,-0.08 0.22,-0.14 0.1,-0.07 0.19,-0.07 0.18,0 0.29,0.2 l 0.64,1.05 q -0.5,0.44 -1.18,0.68 -0.68,0.23 -1.4,0.23 z m -6.61,-0.2 q -0.31,0 -0.47,-0.09 -0.16,-0.1 -0.27,-0.39 l -0.21,-0.83 q -0.39,0.36 -0.77,0.63 -0.38,0.27 -0.79,0.46 -0.4,0.19 -0.87,0.28 -0.46,0.1 -1.02,0.1 -0.62,0 -1.16,-0.17 -0.53,-0.17 -0.92,-0.51 -0.39,-0.35 -0.62,-0.86 -0.22,-0.51 -0.22,-1.2 0,-0.59 0.31,-1.15 0.32,-0.56 1.04,-1 0.73,-0.45 1.91,-0.74 1.19,-0.29 2.93,-0.33 l 0,-0.68 q 0,-1.1 -0.47,-1.64 -0.47,-0.54 -1.38,-0.54 -0.62,0 -1.04,0.16 -0.42,0.15 -0.73,0.33 -0.31,0.18 -0.55,0.34 -0.24,0.15 -0.51,0.15 -0.22,0 -0.38,-0.11 -0.15,-0.12 -0.25,-0.29 l -0.39,-0.7 q 1.73,-1.61 4.12,-1.61 0.88,0 1.56,0.29 0.69,0.28 1.15,0.8 0.47,0.52 0.71,1.24 0.25,0.71 0.25,1.58 l 0,6.48 -0.96,0 z m -3.75,-1.34 q 0.84,0 1.44,-0.31 0.61,-0.32 1.18,-0.91 l 0,-1.9 q -1.15,0.05 -1.94,0.19 -0.79,0.14 -1.28,0.37 -0.49,0.23 -0.71,0.54 -0.21,0.3 -0.21,0.67 0,0.36 0.11,0.62 0.12,0.25 0.32,0.42 0.21,0.16 0.48,0.24 0.28,0.07 0.61,0.07 z m -4.76,-5.86 q 0,1.6 -0.52,2.93 -0.52,1.32 -1.47,2.27 -0.94,0.95 -2.27,1.48 -1.32,0.52 -2.94,0.52 l -5.44,0 0,-14.4 5.44,0 q 1.62,0 2.94,0.53 1.33,0.52 2.27,1.47 0.95,0.95 1.47,2.28 0.52,1.32 0.52,2.92 z m -2.39,0 q 0,-1.24 -0.34,-2.23 -0.33,-0.99 -0.96,-1.67 -0.62,-0.68 -1.51,-1.04 -0.89,-0.37 -2,-0.37 l -3.09,0 0,10.62 3.09,0 q 1.11,0 2,-0.36 0.89,-0.36 1.51,-1.04 0.63,-0.69 0.96,-1.67 0.34,-0.99 0.34,-2.24 z m -21.7,7.2 0,-10.2 1.3,0 q 0.44,0 0.56,0.41 l 0.15,0.95 q 0.32,-0.34 0.67,-0.62 0.36,-0.28 0.76,-0.48 0.4,-0.2 0.85,-0.31 0.46,-0.11 0.99,-0.11 0.84,0 1.47,0.28 0.64,0.28 1.07,0.79 0.44,0.51 0.66,1.23 0.22,0.71 0.22,1.57 l 0,6.49 -2.14,0 0,-6.49 q 0,-1.03 -0.48,-1.6 -0.47,-0.57 -1.44,-0.57 -0.72,0 -1.34,0.33 -0.61,0.33 -1.15,0.9 l 0,7.43 -2.15,0 z m -6.355,-10.3 q 0.94,0 1.74,0.31 0.8,0.3 1.38,0.89 0.58,0.59 0.9,1.45 0.33,0.85 0.33,1.94 0,0.5 -0.11,0.67 -0.11,0.17 -0.4,0.17 l -6.55,0 q 0.04,0.87 0.27,1.51 0.23,0.63 0.61,1.05 0.39,0.42 0.92,0.63 0.54,0.2 1.2,0.2 0.63,0 1.09,-0.14 0.46,-0.15 0.8,-0.32 0.34,-0.18 0.58,-0.32 0.24,-0.15 0.44,-0.15 0.26,0 0.4,0.2 l 0.61,0.79 q -0.38,0.45 -0.86,0.76 -0.48,0.31 -1.02,0.51 -0.54,0.19 -1.11,0.27 -0.57,0.09 -1.11,0.09 -1.06,0 -1.97,-0.35 -0.9,-0.36 -1.57,-1.05 -0.66,-0.69 -1.04,-1.71 -0.37,-1.02 -0.37,-2.35 0,-1.06 0.33,-1.98 0.34,-0.92 0.96,-1.6 0.63,-0.68 1.52,-1.07 0.9,-0.4 2.03,-0.4 z m 0.04,1.56 q -1.17,0 -1.84,0.67 -0.67,0.67 -0.85,1.88 l 5.07,0 q 0,-0.54 -0.16,-1 -0.15,-0.47 -0.45,-0.81 -0.3,-0.35 -0.75,-0.54 -0.44,-0.2 -1.02,-0.2 z m -15.638,12.14 0,-13.59 1.3,0 q 0.44,0 0.56,0.41 l 0.17,1.07 q 0.32,-0.37 0.68,-0.68 0.36,-0.31 0.77,-0.53 0.42,-0.22 0.89,-0.34 0.48,-0.12 1.02,-0.12 0.86,0 1.56,0.35 0.7,0.34 1.2,1 0.5,0.66 0.77,1.64 0.28,0.97 0.28,2.23 0,1.13 -0.31,2.11 -0.3,0.97 -0.87,1.69 -0.57,0.71 -1.38,1.12 -0.81,0.4 -1.83,0.4 -0.9,0 -1.53,-0.28 -0.63,-0.29 -1.13,-0.8 l 0,4.32 -2.15,0 z m 4.67,-12.05 q -0.83,0 -1.42,0.36 -0.59,0.35 -1.1,1.01 l 0,4.73 q 0.45,0.58 0.98,0.82 0.54,0.23 1.19,0.23 1.26,0 1.96,-0.92 0.71,-0.92 0.71,-2.74 0,-0.94 -0.16,-1.6 -0.16,-0.67 -0.46,-1.09 -0.3,-0.42 -0.73,-0.61 -0.43,-0.19 -0.97,-0.19 z m -6.639,1.45 q 0,1.6 -0.52,2.95 -0.52,1.35 -1.47,2.33 -0.94,0.97 -2.27,1.52 -1.32,0.55 -2.94,0.55 -1.61,0 -2.94,-0.55 -1.32,-0.55 -2.27,-1.52 -0.95,-0.98 -1.47,-2.33 -0.52,-1.35 -0.52,-2.95 0,-1.6 0.52,-2.95 0.52,-1.35 1.47,-2.33 0.95,-0.98 2.27,-1.53 1.33,-0.55 2.94,-0.55 1.62,0 2.94,0.55 1.33,0.55 2.27,1.53 0.95,0.98 1.47,2.33 0.52,1.35 0.52,2.95 z m -2.39,0 q 0,-1.24 -0.34,-2.23 -0.33,-0.99 -0.96,-1.68 -0.62,-0.69 -1.51,-1.06 -0.89,-0.37 -2,-0.37 -1.1,0 -1.99,0.37 -0.89,0.37 -1.52,1.06 -0.63,0.69 -0.97,1.68 -0.34,0.99 -0.34,2.23 0,1.25 0.34,2.24 0.34,0.99 0.97,1.68 0.63,0.68 1.52,1.05 0.89,0.36 1.99,0.36 1.11,0 2,-0.36 0.89,-0.37 1.51,-1.05 0.63,-0.69 0.96,-1.68 0.34,-0.99 0.34,-2.24 z" />
      </g>
      <g
         fill="#447aa8"
         id="g4203">
        <path
           id="path4226"
           d="m 169.82,1042.4 0,-7.5988 1.1184,0 q 0.3555,0 0.46659,0.3333 l 0.12591,0.5999 q 0.22959,-0.237 0.4814,-0.4295 0.25922,-0.1926 0.54066,-0.3333 0.28884,-0.1407 0.61472,-0.2148 0.32587,-0.074 0.711,-0.074 0.62212,0 1.1035,0.2148 0.48141,0.2074 0.79987,0.5925 0.32588,0.3777 0.48882,0.911 0.17034,0.5258 0.17034,1.1628 l 0,4.8362 -1.8293,0 0,-4.8362 q 0,-0.6962 -0.32588,-1.0739 -0.31847,-0.3852 -0.96281,-0.3852 -0.474,0 -0.88875,0.2148 -0.41475,0.2148 -0.78506,0.5851 l 0,5.4954 -1.8294,0 z m -12.64,-7.6 1.4516,0 q 0.20737,0 0.34809,0.096 0.14072,0.096 0.17775,0.2444 l 1.0887,4.0586 q 0.0889,0.3333 0.14072,0.6518 0.0592,0.3185 0.11109,0.6369 0.0815,-0.3184 0.17035,-0.6369 0.0963,-0.3185 0.19997,-0.6518 l 1.2591,-4.0734 q 0.0444,-0.1481 0.17775,-0.2444 0.13331,-0.096 0.31106,-0.096 l 0.80728,0 q 0.19997,0 0.33328,0.096 0.13332,0.096 0.17775,0.2444 l 1.2442,4.1475 q 0.0963,0.3185 0.17035,0.6221 0.0815,0.2963 0.15553,0.5999 0.0518,-0.3184 0.11109,-0.6369 0.0667,-0.3185 0.16294,-0.6592 l 1.1258,-4.0586 q 0.037,-0.1481 0.17775,-0.2444 0.14072,-0.096 0.32587,-0.096 l 1.385,0 -2.407,7.5988 -1.4738,0 q -0.237,0 -0.34069,-0.3258 l -1.3702,-4.3919 q -0.0666,-0.2148 -0.1259,-0.4296 -0.0519,-0.2222 -0.0889,-0.437 -0.0444,0.2222 -0.0963,0.4444 -0.0518,0.2148 -0.1185,0.437 l -1.385,4.3771 q -0.10368,0.3258 -0.39993,0.3258 l -1.3998,0 -2.407,-7.5988 z m -4.28,-0.1 q 0.85172,0 1.5405,0.2741 0.69619,0.274 1.185,0.7776 0.48881,0.5036 0.75544,1.2295 0.26662,0.7258 0.26662,1.6219 0,0.9036 -0.26662,1.6294 -0.26663,0.7258 -0.75544,1.2368 -0.48881,0.5111 -1.185,0.7851 -0.68878,0.274 -1.5405,0.274 -0.85172,0 -1.5479,-0.274 -0.69619,-0.274 -1.1924,-0.7851 -0.48882,-0.511 -0.76285,-1.2368 -0.26662,-0.7258 -0.26662,-1.6294 0,-0.8961 0.26662,-1.6219 0.27403,-0.7259 0.76285,-1.2295 0.49621,-0.5036 1.1924,-0.7776 0.69619,-0.2741 1.5479,-0.2741 z m 0,6.4213 q 0.948,0 1.3998,-0.637 0.45919,-0.6369 0.45919,-1.8664 0,-1.2294 -0.45919,-1.8737 -0.45178,-0.6444 -1.3998,-0.6444 -0.96281,0 -1.422,0.6518 -0.45919,0.6443 -0.45919,1.8663 0,1.2221 0.45919,1.8664 0.45919,0.637 1.422,0.637 z m -6.5,1.4787 q -0.98503,0 -1.5183,-0.5554 -0.53325,-0.5629 -0.53325,-1.5479 l 0,-4.2438 -0.77025,0 q -0.14812,0 -0.25922,-0.096 -0.10368,-0.096 -0.10368,-0.2888 l 0,-0.7258 1.222,-0.2 0.38512,-2.0738 q 0.0296,-0.1481 0.13332,-0.2296 0.11109,-0.081 0.27403,-0.081 l 0.948,0 0,2.3922 1.9997,0 0,1.3035 -1.9997,0 0,4.1179 q 0,0.3555 0.17775,0.5554 0.17775,0.2 0.474,0.2 0.17034,0 0.28143,-0.037 0.1185,-0.044 0.19997,-0.089 0.0889,-0.044 0.15553,-0.082 0.0667,-0.044 0.13332,-0.044 0.0815,0 0.13331,0.044 0.0518,0.037 0.11109,0.1185 l 0.54807,0.8888 q -0.39994,0.3333 -0.91838,0.5036 -0.51844,0.1703 -1.0739,0.1703 z m -12.03,-0.2 0,-10.709 3.6957,0 q 1.0517,0 1.7923,0.2 0.74803,0.1999 1.222,0.5703 0.4814,0.3703 0.70359,0.8961 0.22219,0.5259 0.22219,1.185 0,0.3777 -0.1111,0.7258 -0.11109,0.3407 -0.34809,0.6444 -0.22959,0.2962 -0.5925,0.5406 -0.3555,0.2444 -0.85172,0.4148 2.2071,0.4962 2.2071,2.3848 0,0.6814 -0.25921,1.2591 -0.25922,0.5776 -0.75544,0.9998 -0.49622,0.4147 -1.222,0.6517 -0.72582,0.237 -1.659,0.237 l -4.0438,0 z m 1.9923,-4.6955 0,3.1402 2.0219,0 q 0.55547,0 0.92578,-0.1333 0.37772,-0.1333 0.59991,-0.3555 0.22959,-0.2222 0.32587,-0.5184 0.10369,-0.2963 0.10369,-0.6295 0,-0.3481 -0.11109,-0.6222 -0.1111,-0.2814 -0.3481,-0.474 -0.237,-0.1999 -0.60731,-0.3036 -0.37031,-0.1037 -0.89615,-0.1037 l -2.0145,0 z m 0,-1.3776 1.5923,0 q 1.0147,0 1.5405,-0.3703 0.52584,-0.3703 0.52584,-1.1776 0,-0.8369 -0.474,-1.1924 -0.474,-0.3555 -1.4812,-0.3555 l -1.7034,0 0,3.0958 z" />
      </g>
    </g>
  </g>
</svg>
