<?xml version="1.0" encoding="UTF-8" standalone="no"?>
<!-- Created with Inkscape (http://www.inkscape.org/) -->
<svg id="svg2" xmlns:rdf="http://www.w3.org/1999/02/22-rdf-syntax-ns#" xmlns="http://www.w3.org/2000/svg" height="36" width="181" version="1.1" xmlns:cc="http://creativecommons.org/ns#" xmlns:dc="http://purl.org/dc/elements/1.1/" viewBox="0 0 181 36">
 <metadata id="metadata7">
  <rdf:RDF>
   <cc:Work rdf:about="">
    <dc:format>image/svg+xml</dc:format>
    <dc:type rdf:resource="http://purl.org/dc/dcmitype/StillImage"/>
    <dc:title/>
   </cc:Work>
  </rdf:RDF>
 </metadata>
 <g id="layer1" transform="translate(0 -1016.4)">
  <path id="path4177" fill="#315da6" d="m17.938 1016.5a17.938 17.938 0 0 0 -17.938 17.9 17.938 17.938 0 0 0 17.938 17.938 17.938 17.938 0 0 0 9.3283 -2.6361l-5.929-5.929c-2.2127 0.9406-4.3782 0.9982-5.6251 0.5409-4.5625-1.6737-7.0182-5.2984-6.8802-9.5374l6.9668 3.8797c1.5791 0.8794 3.5536 0.3249 4.4272-1.2437l1.9284-3.4629c0.87356-1.5687 0.30602-3.5397-1.2731-4.419l-7.1368-3.9762c1.1629-0.6311 2.4678-0.8898 3.9287-0.8711 2.0758 0.027 4.4583 0.5915 7.1711 1.3598 3.7035 1.0488 5.095 5.6767 2.5445 11.554-0.04675 0.1078-0.10168 0.2025-0.15035 0.3074l5.929 5.9306a17.938 17.938 0 0 0 2.7079 -9.4345 17.938 17.938 0 0 0 -17.938 -17.938z"/>
  <text id="text4247" style="word-spacing:0px;letter-spacing:0px" xml:space="preserve" font-size="21.126px" y="1042.4377" x="42.118217" font-family="sans-serif" line-height="125%" fill="#447aa8"><tspan id="tspan4249" font-size="20px" y="1042.4377" x="42.118217" font-family="Lato"><tspan id="tspan4253" font-weight="600" fill="#315da6">OpenData</tspan><tspan id="tspan4251" font-weight="bold" font-size="14.812px" fill="#447aa8">Btown</tspan></tspan></text>
 </g>
</svg>
