<?xml version="1.0" encoding="UTF-8" standalone="no"?>
<!-- Created with Inkscape (http://www.inkscape.org/) -->
<svg id="svg2" xmlns:rdf="http://www.w3.org/1999/02/22-rdf-syntax-ns#" xmlns="http://www.w3.org/2000/svg" height="43" width="220" version="1.1" xmlns:cc="http://creativecommons.org/ns#" xmlns:dc="http://purl.org/dc/elements/1.1/" viewBox="0 0 220 43">
 <metadata id="metadata7">
  <rdf:RDF>
   <cc:Work rdf:about="">
    <dc:format>image/svg+xml</dc:format>
    <dc:type rdf:resource="http://purl.org/dc/dcmitype/StillImage"/>
    <dc:title/>
   </cc:Work>
  </rdf:RDF>
 </metadata>
 <g id="layer1" transform="translate(0 -1009.4)" fill="#315da6">
  <path id="path4177" d="m21.438 0.125a21.438 21.438 0 0 0 -21.438 21.437 21.438 21.438 0 0 0 21.438 21.438 21.438 21.438 0 0 0 11.148 -3.15l-7.086-7.086c-2.644 1.124-5.232 1.193-6.723 0.646-5.452-2-8.387-6.332-8.222-11.398l8.326 4.636c1.887 1.051 4.247 0.389 5.291-1.486l2.305-4.139c1.044-1.874 0.365-4.23-1.522-5.281l-8.529-4.752c1.39-0.754 2.949-1.0632 4.695-1.0408 2.481 0.0319 5.328 0.7068 8.57 1.6248 4.427 1.254 6.089 6.785 3.041 13.809-0.055 0.129-0.121 0.242-0.179 0.367l7.086 7.088a21.438 21.438 0 0 0 3.236 -11.276 21.438 21.438 0 0 0 -21.437 -21.437z" transform="translate(0 1009.4)"/>
  <text id="text6157" style="word-spacing:0px;letter-spacing:0px" font-weight="bold" xml:space="preserve" transform="scale(.92017 1.0868)" line-height="125%" font-size="19.759px" y="958.3656" x="52.687332" font-family="Lato"><tspan id="tspan6159" font-weight="900" y="958.3656" x="52.687332" font-family="Lato" fill="#315da6"><tspan id="tspan4172" font-size="25.925px">OpenData</tspan><tspan id="tspan4168" fill="#447aa8">Btown</tspan></tspan></text>
 </g>
</svg>
