<?xml version="1.0" encoding="UTF-8" standalone="no"?>
<!-- Created with Inkscape (http://www.inkscape.org/) -->

<svg
   xmlns:dc="http://purl.org/dc/elements/1.1/"
   xmlns:cc="http://creativecommons.org/ns#"
   xmlns:rdf="http://www.w3.org/1999/02/22-rdf-syntax-ns#"
   xmlns:svg="http://www.w3.org/2000/svg"
   xmlns="http://www.w3.org/2000/svg"
   xmlns:sodipodi="http://sodipodi.sourceforge.net/DTD/sodipodi-0.dtd"
   xmlns:inkscape="http://www.inkscape.org/namespaces/inkscape"
   width="78"
   height="33"
   viewBox="0 0 78 33"
   id="svg2"
   version="1.1"
   inkscape:version="0.91 r13725"
   sodipodi:docname="open-data-1b-with-text-optimized.svg">
  <defs
     id="defs4" />
  <sodipodi:namedview
     id="base"
     pagecolor="#ffffff"
     bordercolor="#666666"
     borderopacity="1.0"
     inkscape:pageopacity="0.0"
     inkscape:pageshadow="2"
     inkscape:zoom="5.6568542"
     inkscape:cx="42.453917"
     inkscape:cy="50.21918"
     inkscape:document-units="px"
     inkscape:current-layer="layer1"
     showgrid="false"
     units="px"
     inkscape:window-width="1920"
     inkscape:window-height="1107"
     inkscape:window-x="0"
     inkscape:window-y="1"
     inkscape:window-maximized="1"
     showguides="true"
     inkscape:guide-bbox="true" />
  <metadata
     id="metadata7">
    <rdf:RDF>
      <cc:Work
         rdf:about="">
        <dc:format>image/svg+xml</dc:format>
        <dc:type
           rdf:resource="http://purl.org/dc/dcmitype/StillImage" />
        <dc:title></dc:title>
      </cc:Work>
    </rdf:RDF>
  </metadata>
  <g
     inkscape:label="Layer 1"
     inkscape:groupmode="layer"
     id="layer1"
     transform="translate(0,-1019.3622)">
    <path
       style="fill:#2a2e32;fill-opacity:1;stroke:none;stroke-width:1;stroke-miterlimit:4;stroke-dasharray:none;stroke-opacity:1"
       d="m 16.310976,1020.4473 a 15.603869,15.603869 0 0 0 -15.60386917,15.6039 15.603869,15.603869 0 0 0 15.60386917,15.6039 15.603869,15.603869 0 0 0 8.114695,-2.2931 l -5.157694,-5.1577 c -1.924855,0.8182 -3.808586,0.8683 -4.893268,0.4705 -3.968902,-1.456 -6.1051422,-4.6091 -5.9850852,-8.2966 l 6.0604312,3.3749 c 1.373666,0.765 3.091301,0.2827 3.85121,-1.0818 l 1.67753,-3.0125 c 0.759909,-1.3645 0.266211,-3.0791 -1.107454,-3.8441 l -6.208281,-3.4588 c 1.011646,-0.549 2.146765,-0.7741 3.417611,-0.7577 1.805728,0.023 3.878269,0.5145 6.238136,1.1828 3.221707,0.9124 4.43211,4.9382 2.213486,10.0509 -0.04067,0.094 -0.08845,0.1761 -0.130791,0.2673 l 5.157693,5.1591 a 15.603869,15.603869 0 0 0 2.35565,-8.2071 15.603869,15.603869 0 0 0 -15.603869,-15.6039 z"
       id="path4177"
       inkscape:connector-curvature="0" />
    <g
       transform="matrix(0.92017323,0,0,1.0867519,-12.374369,5.1265242)"
       style="font-style:normal;font-variant:normal;font-weight:bold;font-stretch:normal;font-size:16.1960125px;line-height:125%;font-family:Lato;-inkscape-font-specification:'Lato Bold';letter-spacing:0px;word-spacing:0px;fill:#8d98a5;fill-opacity:1;stroke:none;stroke-width:1px;stroke-linecap:butt;stroke-linejoin:miter;stroke-opacity:1"
       id="text6157">
      <path
         d="m 64.863508,942.1892 q 0,1.27949 -0.44539,2.38082 -0.437292,1.10133 -1.238995,1.91923 -0.801702,0.8098 -1.935423,1.27138 -1.125623,0.46159 -2.502284,0.46159 -1.376661,0 -2.510382,-0.46159 -1.133721,-0.46158 -1.943522,-1.27138 -0.801702,-0.8179 -1.247093,-1.91923 -0.437292,-1.10133 -0.437292,-2.38082 0,-1.27948 0.437292,-2.38081 0.445391,-1.10133 1.247093,-1.91113 0.809801,-0.8098 1.943522,-1.27139 1.133721,-0.46158 2.510382,-0.46158 1.376661,0 2.502284,0.46968 1.133721,0.46159 1.935423,1.27139 0.801703,0.8098 1.238995,1.91113 0.44539,1.10133 0.44539,2.37271 z m -2.80191,0 q 0,-0.87458 -0.226744,-1.57101 -0.226744,-0.70452 -0.655938,-1.19041 -0.421097,-0.48588 -1.036545,-0.74501 -0.615449,-0.25914 -1.400955,-0.25914 -0.793605,0 -1.417151,0.25914 -0.615449,0.25913 -1.044643,0.74501 -0.421096,0.48589 -0.647841,1.19041 -0.226744,0.69643 -0.226744,1.57101 0,0.88269 0.226744,1.58721 0.226745,0.69643 0.647841,1.18231 0.429194,0.48588 1.044643,0.74502 0.623546,0.25104 1.417151,0.25104 0.785506,0 1.400955,-0.25104 0.615448,-0.25914 1.036545,-0.74502 0.429194,-0.48588 0.655938,-1.18231 0.226744,-0.70452 0.226744,-1.58721 z"
         style="font-style:normal;font-variant:normal;font-weight:900;font-stretch:normal;font-family:Lato;-inkscape-font-specification:'Lato Heavy';fill:#8d98a5;fill-opacity:1"
         id="path6234"
         inkscape:connector-curvature="0" />
      <path
         d="m 68.925165,944.14892 0,3.94373 -2.737126,0 0,-11.79879 4.162375,0 q 1.247093,0 2.137874,0.29962 0.898878,0.29153 1.473837,0.8098 0.583056,0.51828 0.858388,1.2228 0.275333,0.70453 0.275333,1.52243 0,0.88268 -0.283431,1.6196 -0.28343,0.73692 -0.866486,1.26329 -0.583057,0.52637 -1.481935,0.82599 -0.890781,0.29153 -2.11358,0.29153 l -1.425249,0 z m 0,-2.06499 1.425249,0 q 1.068937,0 1.538621,-0.51017 0.469685,-0.51018 0.469685,-1.42525 0,-0.4049 -0.121471,-0.73692 -0.12147,-0.33202 -0.372508,-0.56686 -0.24294,-0.24294 -0.623546,-0.37251 -0.372509,-0.12957 -0.890781,-0.12957 l -1.425249,0 0,3.74128 z"
         style="font-style:normal;font-variant:normal;font-weight:900;font-stretch:normal;font-family:Lato;-inkscape-font-specification:'Lato Heavy';fill:#8d98a5;fill-opacity:1"
         id="path6236"
         inkscape:connector-curvature="0" />
      <path
         d="m 84.127906,936.29386 0,2.10548 -4.842608,0 0,2.75332 3.708887,0 0,2.0245 -3.708887,0 0,2.81001 4.842608,0 0,2.10548 -7.59593,0 0,-11.79879 7.59593,0 z"
         style="font-style:normal;font-variant:normal;font-weight:900;font-stretch:normal;font-family:Lato;-inkscape-font-specification:'Lato Heavy';fill:#8d98a5;fill-opacity:1"
         id="path6238"
         inkscape:connector-curvature="0" />
      <path
         d="m 87.115312,936.29386 q 0.178156,0 0.299627,0.0162 0.12147,0.0162 0.218646,0.0648 0.09718,0.0405 0.186254,0.12147 0.08908,0.081 0.20245,0.21864 l 5.60382,7.08576 q -0.03239,-0.34012 -0.04859,-0.65594 -0.0162,-0.32392 -0.0162,-0.60735 l 0,-6.24356 2.413206,0 0,11.79879 -1.425249,0 q -0.315822,0 -0.534468,-0.0972 -0.218647,-0.0972 -0.421097,-0.35632 l -5.56333,-7.02907 q 0.02429,0.30773 0.04049,0.60735 0.0162,0.29153 0.0162,0.55067 l 0,6.32454 -2.413206,0 0,-11.79879 1.441445,0 0,0 z"
         style="font-style:normal;font-variant:normal;font-weight:900;font-stretch:normal;font-family:Lato;-inkscape-font-specification:'Lato Heavy';fill:#8d98a5;fill-opacity:1"
         id="path6240"
         inkscape:connector-curvature="0" />
    </g>
    <g
       transform="matrix(0.94272964,0,0,1.0607495,-12.374369,5.1265242)"
       style="font-style:normal;font-variant:normal;font-weight:bold;font-stretch:normal;font-size:16.59302711px;line-height:125%;font-family:sans-serif;-inkscape-font-specification:'sans-serif Bold';letter-spacing:0px;word-spacing:0px;fill:#585f68;fill-opacity:1;stroke:none;stroke-width:1px;stroke-linecap:butt;stroke-linejoin:miter;stroke-opacity:1"
       id="text6161">
      <path
         d="m 63.015998,979.70495 q 0,1.31085 -0.456308,2.42259 -0.448012,1.10343 -1.269367,1.91649 -0.821355,0.80476 -1.982867,1.26107 -1.153215,0.44801 -2.563622,0.44801 l -4.695827,0 0,-12.08802 4.695827,0 q 1.410407,0 2.563622,0.45631 1.161512,0.45631 1.982867,1.26107 0.821355,0.80476 1.269367,1.9165 0.456308,1.10343 0.456308,2.40598 z m -2.870594,0 q 0,-0.89602 -0.232302,-1.61782 -0.232303,-0.72179 -0.672018,-1.21958 -0.431418,-0.50609 -1.061953,-0.77158 -0.630536,-0.27378 -1.435297,-0.27378 l -1.875012,0 0,7.77383 1.875012,0 q 0.804761,0 1.435297,-0.26549 0.630535,-0.27378 1.061953,-0.77157 0.439715,-0.50609 0.672018,-1.22789 0.232302,-0.7218 0.232302,-1.62612 z"
         style="font-style:normal;font-variant:normal;font-weight:900;font-stretch:normal;font-family:Lato;-inkscape-font-specification:'Lato Heavy';fill:#585f68;fill-opacity:1"
         id="path6243"
         inkscape:connector-curvature="0" />
      <path
         d="m 75.159501,985.75311 -2.173687,0 q -0.365046,0 -0.605645,-0.16593 -0.232302,-0.17422 -0.323564,-0.43971 l -0.7135,-2.10732 -4.596269,0 -0.7135,2.10732 q -0.08297,0.2323 -0.323564,0.42312 -0.240599,0.18252 -0.589052,0.18252 l -2.19028,0 4.679234,-12.08802 2.870593,0 4.679234,12.08802 z m -7.765537,-4.62116 3.302013,0 -1.111733,-3.3103 q -0.107855,-0.31527 -0.257192,-0.73839 -0.141041,-0.43142 -0.282082,-0.92921 -0.132744,0.50608 -0.273784,0.9375 -0.141041,0.43142 -0.265489,0.74669 l -1.111733,3.29371 z"
         style="font-style:normal;font-variant:normal;font-weight:900;font-stretch:normal;font-family:Lato;-inkscape-font-specification:'Lato Heavy';fill:#585f68;fill-opacity:1"
         id="path6245"
         inkscape:connector-curvature="0" />
      <path
         d="m 83.576313,973.66509 0,2.22347 -3.40157,0 0,9.86455 -2.804222,0 0,-9.86455 -3.40157,0 0,-2.22347 9.607362,0 z"
         style="font-style:normal;font-variant:normal;font-weight:900;font-stretch:normal;font-family:Lato;-inkscape-font-specification:'Lato Heavy';fill:#585f68;fill-opacity:1"
         id="path6247"
         inkscape:connector-curvature="0" />
      <path
         d="m 94.636863,985.75311 -2.173687,0 q -0.365046,0 -0.605645,-0.16593 -0.232303,-0.17422 -0.323564,-0.43971 l -0.713501,-2.10732 -4.596268,0 -0.7135,2.10732 q -0.08297,0.2323 -0.323564,0.42312 -0.240599,0.18252 -0.589053,0.18252 l -2.190279,0 4.679233,-12.08802 2.870594,0 4.679234,12.08802 z m -7.765537,-4.62116 3.302012,0 -1.111732,-3.3103 q -0.107855,-0.31527 -0.257192,-0.73839 -0.141041,-0.43142 -0.282082,-0.92921 -0.132744,0.50608 -0.273785,0.9375 -0.141041,0.43142 -0.265488,0.74669 l -1.111733,3.29371 z"
         style="font-style:normal;font-variant:normal;font-weight:900;font-stretch:normal;font-family:Lato;-inkscape-font-specification:'Lato Heavy';fill:#585f68;fill-opacity:1"
         id="path6249"
         inkscape:connector-curvature="0" />
    </g>
  </g>
</svg>
